<svg xmlns="http://www.w3.org/2000/svg" viewBox="0 0 800 600">
  <rect width="800" height="600" fill="#ebe6dc"/>
  <line x1="400" y1="60" x2="400" y2="540" stroke="#c0b9a8" stroke-width="1" stroke-dasharray="4 4"/>
  <g stroke="#1a1816" stroke-width="2">
    <line x1="220" y1="120" x2="480" y2="120"/><line x1="180" y1="180" x2="520" y2="180"/>
    <line x1="280" y1="240" x2="440" y2="240"/><line x1="200" y1="300" x2="500" y2="300"/>
    <line x1="320" y1="360" x2="420" y2="360"/><line x1="240" y1="420" x2="460" y2="420"/>
    <line x1="160" y1="480" x2="540" y2="480"/>
  </g>
  <g fill="#c0392b">
    <circle cx="350" cy="120" r="6"/><circle cx="350" cy="180" r="6"/>
    <circle cx="360" cy="240" r="6"/><circle cx="350" cy="300" r="6"/>
    <circle cx="370" cy="360" r="6"/><circle cx="350" cy="420" r="6"/>
    <circle cx="350" cy="480" r="6"/>
  </g>
  <g font-family="monospace" font-size="11" fill="#4a4642">
    <text x="40" y="124">Asthma rate</text><text x="40" y="184">Diabetes</text>
    <text x="40" y="244">Hypertension</text><text x="40" y="304">Heart disease</text>
    <text x="40" y="364">Obesity</text><text x="40" y="424">COPD</text>
    <text x="40" y="484">All-cause mortality</text>
  </g>
  <text x="600" y="80" font-family="monospace" font-size="13" fill="#4a4642">ESTIMATE ± MOE</text>
</svg>