<svg xmlns="http://www.w3.org/2000/svg" viewBox="0 0 800 600">
  <rect width="800" height="600" fill="#ebe6dc"/>
  <g fill="#d4b88a" opacity="0.7" stroke="#8a7d62" stroke-width="1">
    <rect x="80" y="100" width="120" height="80"/><rect x="220" y="100" width="100" height="80"/>
    <rect x="340" y="100" width="140" height="80"/><rect x="500" y="100" width="80" height="80"/>
    <rect x="600" y="100" width="120" height="80"/>
    <rect x="80" y="220" width="100" height="100"/><rect x="200" y="220" width="160" height="100"/>
    <rect x="380" y="220" width="120" height="100"/><rect x="520" y="220" width="100" height="100"/>
    <rect x="640" y="220" width="80" height="100"/>
    <rect x="80" y="360" width="140" height="90"/><rect x="240" y="360" width="100" height="90"/>
    <rect x="360" y="360" width="120" height="90"/><rect x="500" y="360" width="140" height="90"/>
    <rect x="660" y="360" width="60" height="90"/>
  </g>
  <g stroke="#8a7d62" stroke-width="2" fill="none" opacity="0.4">
    <line x1="0" y1="200" x2="800" y2="200"/>
    <line x1="0" y1="340" x2="800" y2="340"/>
    <line x1="0" y1="470" x2="800" y2="470"/>
  </g>
  <text x="40" y="560" font-family="monospace" font-size="13" fill="#4a4642">SANBORN 1905 · MOSAIC</text>
</svg>