<svg xmlns="http://www.w3.org/2000/svg" viewBox="0 0 1600 700">
  <rect width="1600" height="700" fill="#ebe6dc"/>
  <g stroke="#c0b9a8" stroke-width="1" fill="none" opacity="0.5">
    <line x1="0" y1="0" x2="0" y2="700"/>
    <line x1="80" y1="0" x2="80" y2="700"/>
    <line x1="160" y1="0" x2="160" y2="700"/>
    <line x1="240" y1="0" x2="240" y2="700"/>
    <line x1="320" y1="0" x2="320" y2="700"/>
    <line x1="400" y1="0" x2="400" y2="700"/>
    <line x1="480" y1="0" x2="480" y2="700"/>
    <line x1="560" y1="0" x2="560" y2="700"/>
    <line x1="640" y1="0" x2="640" y2="700"/>
    <line x1="720" y1="0" x2="720" y2="700"/>
    <line x1="800" y1="0" x2="800" y2="700"/>
    <line x1="880" y1="0" x2="880" y2="700"/>
    <line x1="960" y1="0" x2="960" y2="700"/>
    <line x1="1040" y1="0" x2="1040" y2="700"/>
    <line x1="1120" y1="0" x2="1120" y2="700"/>
    <line x1="1200" y1="0" x2="1200" y2="700"/>
    <line x1="1280" y1="0" x2="1280" y2="700"/>
    <line x1="1360" y1="0" x2="1360" y2="700"/>
    <line x1="1440" y1="0" x2="1440" y2="700"/>
    <line x1="1520" y1="0" x2="1520" y2="700"/>
    <line x1="1600" y1="0" x2="1600" y2="700"/>
    <line x1="0" y1="0" x2="1600" y2="0"/>
    <line x1="0" y1="80" x2="1600" y2="80"/>
    <line x1="0" y1="160" x2="1600" y2="160"/>
    <line x1="0" y1="240" x2="1600" y2="240"/>
    <line x1="0" y1="320" x2="1600" y2="320"/>
    <line x1="0" y1="400" x2="1600" y2="400"/>
    <line x1="0" y1="480" x2="1600" y2="480"/>
    <line x1="0" y1="560" x2="1600" y2="560"/>
    <line x1="0" y1="640" x2="1600" y2="640"/>
  </g>
  <g fill="#4a6b3a" opacity="0.45">
    <circle cx="723" cy="214" r="40"/>
    <circle cx="1393" cy="109" r="19"/>
    <circle cx="1157" cy="156" r="38"/>
    <circle cx="1253" cy="119" r="47"/>
    <circle cx="499" cy="98" r="20"/>
    <circle cx="948" cy="488" r="19"/>
    <circle cx="552" cy="152" r="50"/>
    <circle cx="929" cy="120" r="22"/>
    <circle cx="517" cy="123" r="40"/>
    <circle cx="161" cy="286" r="17"/>
    <circle cx="1200" cy="196" r="33"/>
    <circle cx="918" cy="207" r="49"/>
    <circle cx="301" cy="375" r="50"/>
    <circle cx="1456" cy="245" r="21"/>
    <circle cx="1251" cy="252" r="38"/>
    <circle cx="259" cy="620" r="19"/>
    <circle cx="1215" cy="121" r="28"/>
    <circle cx="1076" cy="604" r="42"/>
    <circle cx="703" cy="536" r="44"/>
    <circle cx="800" cy="366" r="30"/>
    <circle cx="428" cy="309" r="20"/>
    <circle cx="1236" cy="367" r="48"/>
    <circle cx="1073" cy="411" r="43"/>
    <circle cx="649" cy="134" r="22"/>
    <circle cx="1108" cy="488" r="25"/>
    <circle cx="760" cy="215" r="46"/>
    <circle cx="923" cy="100" r="19"/>
    <circle cx="1202" cy="381" r="36"/>
    <circle cx="1483" cy="418" r="46"/>
    <circle cx="1247" cy="527" r="19"/>
    <circle cx="251" cy="336" r="45"/>
    <circle cx="1487" cy="126" r="18"/>
    <circle cx="1496" cy="377" r="43"/>
    <circle cx="642" cy="455" r="37"/>
    <circle cx="106" cy="532" r="37"/>
    <circle cx="404" cy="179" r="46"/>
    <circle cx="180" cy="283" r="33"/>
    <circle cx="324" cy="313" r="40"/>
    <circle cx="860" cy="568" r="20"/>
    <circle cx="400" cy="519" r="40"/>
    <circle cx="1185" cy="344" r="23"/>
    <circle cx="941" cy="623" r="32"/>
    <circle cx="1506" cy="485" r="37"/>
    <circle cx="1458" cy="449" r="29"/>
    <circle cx="369" cy="144" r="26"/>
    <circle cx="369" cy="297" r="29"/>
    <circle cx="84" cy="556" r="26"/>
    <circle cx="598" cy="348" r="15"/>
    <circle cx="358" cy="489" r="49"/>
    <circle cx="816" cy="639" r="35"/>
    <circle cx="317" cy="587" r="18"/>
    <circle cx="995" cy="632" r="40"/>
    <circle cx="875" cy="468" r="40"/>
    <circle cx="272" cy="553" r="40"/>
    <circle cx="187" cy="255" r="19"/>
    <circle cx="487" cy="511" r="25"/>
    <circle cx="285" cy="408" r="18"/>
    <circle cx="269" cy="60" r="24"/>
    <circle cx="1158" cy="163" r="38"/>
    <circle cx="1316" cy="86" r="19"/>
  </g>
  <g fill="#c0392b" opacity="0.7">
    <path d="M 380 320 L 380 298 L 394 305 L 380 311 Z" />
    <circle cx="380" cy="320" r="2.5" />
    <path d="M 440 380 L 440 358 L 454 365 L 440 371 Z" />
    <circle cx="440" cy="380" r="2.5" />
    <path d="M 320 280 L 320 258 L 334 265 L 320 271 Z" />
    <circle cx="320" cy="280" r="2.5" />
    <path d="M 600 420 L 600 398 L 614 405 L 600 411 Z" />
    <circle cx="600" cy="420" r="2.5" />
    <path d="M 520 460 L 520 438 L 534 445 L 520 451 Z" />
    <circle cx="520" cy="460" r="2.5" />
    <path d="M 700 350 L 700 328 L 714 335 L 700 341 Z" />
    <circle cx="700" cy="350" r="2.5" />
    <path d="M 480 240 L 480 218 L 494 225 L 480 231 Z" />
    <circle cx="480" cy="240" r="2.5" />
    <path d="M 380 480 L 380 458 L 394 465 L 380 471 Z" />
    <circle cx="380" cy="480" r="2.5" />
    <path d="M 660 280 L 660 258 L 674 265 L 660 271 Z" />
    <circle cx="660" cy="280" r="2.5" />
    <path d="M 420 540 L 420 518 L 434 525 L 420 531 Z" />
    <circle cx="420" cy="540" r="2.5" />
  </g>
  <text x="50" y="660" font-family="monospace" font-size="14" fill="#4a4642" letter-spacing="2">JACKSON WARD · CANOPY GAP &amp; PRIORITY BLOCKS · 2025</text>
</svg>